<svg width="252" height="164" viewBox="0 0 252 164" fill="none" xmlns="http://www.w3.org/2000/svg">
<g clip-path="url(#clip0_967_5779)">
<path d="M127.897 27.8633C126.449 27.8633 125.011 28.1112 123.647 28.5963L101.396 36.5074L127.897 46.5797L128.264 46.2936V27.8711C128.142 27.8676 128.019 27.8633 127.897 27.8633Z" fill="#05858D"/>
<path d="M113.929 32.0508L101.396 36.5068L113.788 41.2164C110.999 38.8452 111.061 34.3384 113.929 32.0508Z" fill="#05858D"/>
<path d="M132.146 28.5963C130.782 28.1112 129.345 27.8633 127.896 27.8633V46.4313L154.397 36.5074L132.146 28.5963Z" fill="#0296E5"/>
<path d="M127.897 45.9861L123.416 51.282C123.044 51.7949 122.379 52.0009 121.782 51.7876L101.396 44.4961V64.13C101.396 65.2939 102.128 66.3323 103.224 66.7243L124.306 74.2649C125.458 74.677 126.673 74.8878 127.897 74.8878C128.019 74.8878 128.142 74.8841 128.264 74.8799V46.4328L127.897 45.9861Z" fill="#0296E5"/>
<path d="M106.702 65.6465V46.3938L101.396 44.4961V64.13C101.396 65.2939 102.128 66.3323 103.224 66.7243L107.995 68.4309C107.192 67.7509 106.702 66.7415 106.702 65.6465Z" fill="#05858D"/>
<path d="M134.011 51.9361C133.415 52.1494 132.749 51.9433 132.378 51.4305L127.896 45.9863V74.8878C129.12 74.8878 130.335 74.6771 131.487 74.2649L152.569 66.7243C153.665 66.3323 154.397 65.2939 154.397 64.13V44.6445L134.011 51.9361Z" fill="#0296E5"/>
<path d="M140.395 4.42321C139.163 3.79308 138.157 2.78502 137.529 1.55148C137.393 1.28354 137.12 1.11328 136.819 1.11328C136.518 1.11328 136.245 1.28354 136.109 1.55148C135.481 2.78502 134.475 3.79293 133.243 4.42321C132.976 4.55977 132.807 4.83275 132.807 5.13275V5.15235C132.807 5.44908 132.971 5.72295 133.235 5.85788C134.463 6.48415 135.467 7.48553 136.096 8.71165C136.231 8.97498 136.505 9.13827 136.801 9.13827H136.838C137.134 9.13827 137.407 8.97498 137.542 8.71165C138.171 7.48553 139.175 6.48415 140.403 5.85788C140.667 5.7231 140.832 5.44923 140.832 5.15235V5.13275C140.831 4.8329 140.662 4.55992 140.395 4.42321Z" fill="#FFE02F"/>
<path d="M122.429 7.71526C121.507 7.24367 120.754 6.48931 120.284 5.56618C120.182 5.36564 119.978 5.23828 119.753 5.23828C119.528 5.23828 119.323 5.36564 119.221 5.56618C118.752 6.48931 117.999 7.24367 117.077 7.71526C116.877 7.81753 116.75 8.02178 116.75 8.24622V8.26091C116.75 8.48298 116.873 8.68797 117.071 8.78891C117.99 9.25752 118.741 10.007 119.212 10.9246C119.313 11.1217 119.518 11.2439 119.739 11.2439H119.767C119.988 11.2439 120.193 11.1217 120.294 10.9246C120.765 10.007 121.516 9.25752 122.435 8.78891C122.633 8.68797 122.756 8.48298 122.756 8.26091V8.24622C122.755 8.02178 122.629 7.81753 122.429 7.71526Z" fill="#FFEA7E"/>
<path d="M136.241 5.85788C135.977 5.7231 135.812 5.44923 135.812 5.15235V5.13275C135.812 4.83275 135.982 4.55977 136.249 4.42321C137.05 4.01366 137.754 3.44365 138.322 2.75667C138.016 2.3866 137.749 1.98329 137.529 1.55148C137.393 1.28354 137.12 1.11328 136.819 1.11328C136.518 1.11328 136.245 1.28354 136.109 1.55148C135.481 2.78502 134.475 3.79293 133.243 4.42321C132.976 4.55977 132.807 4.83275 132.807 5.13275V5.15235C132.807 5.44908 132.971 5.72295 133.235 5.85788C134.463 6.48415 135.467 7.48553 136.096 8.71165C136.231 8.97498 136.505 9.13827 136.801 9.13827H136.838C137.134 9.13827 137.407 8.97498 137.542 8.71165C137.759 8.28859 138.022 7.893 138.322 7.52962C137.752 6.83996 137.045 6.26802 136.241 5.85788Z" fill="#FBC700"/>
<path d="M119.668 8.78891C119.47 8.68797 119.348 8.48298 119.348 8.26091V8.24622C119.348 8.02178 119.474 7.81738 119.674 7.71526C120.195 7.44881 120.659 7.08959 121.052 6.66328C120.749 6.33494 120.489 5.96785 120.284 5.56618C120.182 5.36564 119.978 5.23828 119.753 5.23828C119.528 5.23828 119.323 5.36564 119.221 5.56618C118.752 6.48931 117.999 7.24367 117.077 7.71526C116.877 7.81753 116.75 8.02178 116.75 8.24622V8.26091C116.75 8.48298 116.873 8.68797 117.071 8.78891C117.99 9.25752 118.741 10.007 119.212 10.9246C119.313 11.1217 119.517 11.2439 119.739 11.2439H119.767C119.988 11.2439 120.193 11.1217 120.294 10.9246C120.497 10.5296 120.754 10.1682 121.052 9.84445C120.658 9.4162 120.191 9.0558 119.668 8.78891Z" fill="#FFE02F"/>
<path d="M158.391 42.0225L154.397 36.5078L127.896 45.9863L132.378 52.1727C132.749 52.6856 133.415 52.8916 134.011 52.6783L157.717 44.1991C158.611 43.8795 158.948 42.7913 158.391 42.0225Z" fill="#0296E5"/>
<path d="M97.4024 42.0225L101.397 36.5078L127.897 45.9863L123.416 52.1727C123.044 52.6856 122.379 52.8916 121.783 52.6783L98.0761 44.1991C97.1822 43.8795 96.8454 42.7913 97.4024 42.0225Z" fill="#0296E5"/>
<path d="M101.691 43.5987L105.71 38.0506L101.397 36.5078L97.4023 42.0225C96.8454 42.7913 97.1823 43.8795 98.0761 44.1993L101.784 45.5254C101.328 45.0066 101.248 44.2101 101.691 43.5987Z" fill="#05858D"/>
<path d="M100.598 35.8548L96.6034 41.3694C95.6107 42.7396 96.2095 44.6772 97.8039 45.2474L100.386 46.171V64.13C100.386 65.7599 101.417 67.2238 102.952 67.7726L124.034 75.3132C126.555 76.2152 129.358 76.2459 131.965 75.3132L153.047 67.7726C154.582 67.2238 155.613 65.7599 155.613 64.13V58.4476C155.613 57.8326 155.115 57.3343 154.5 57.3343C153.885 57.3343 153.386 57.8326 153.386 58.4476V64.13C153.386 64.8218 152.949 65.4431 152.297 65.6762L131.215 73.2168C130.532 73.4612 129.828 73.6261 129.113 73.7098V49.4211L131.579 52.8257C132.232 53.7278 133.431 54.1056 134.489 53.7266C135.669 53.3046 152.864 47.1543 153.387 46.9674V53.252C153.387 53.867 153.885 54.3653 154.5 54.3653C155.115 54.3653 155.613 53.867 155.613 53.252V46.171L158.195 45.2474C159.789 44.6775 160.389 42.7402 159.396 41.3692L159.396 41.3694L155.401 35.8548C155.288 35.6973 155.088 35.5354 154.873 35.4589L145.222 32.0279C144.643 31.8214 144.006 32.1244 143.801 32.7039C143.595 33.2832 143.897 33.9198 144.477 34.1258L151.185 36.5111L129.113 44.4057V29.0303C130.054 29.121 130.98 29.3269 131.876 29.6457L139.554 32.3755C140.133 32.5819 140.77 32.279 140.976 31.6995C141.182 31.1202 140.879 30.4837 140.3 30.2776L132.622 27.5478C129.707 26.5111 126.443 26.4574 123.377 27.5478L101.126 35.4589C100.914 35.5345 100.717 35.6901 100.598 35.8548ZM98.4065 42.6757L101.911 37.8374L126.227 46.5348C125.402 47.6739 126.122 46.6809 122.617 51.5197C122.536 51.6309 122.389 51.676 122.26 51.6302C121.846 51.482 98.9867 43.3058 98.5537 43.151C98.3582 43.0809 98.2846 42.8438 98.4065 42.6757ZM103.702 65.6762C103.05 65.4433 102.613 64.8218 102.613 64.13V46.9674L121.51 53.7266C122.579 54.1088 123.768 53.7184 124.415 52.8323C124.417 52.83 124.419 52.8281 124.42 52.8259C124.42 52.8257 124.42 52.8257 124.42 52.8257L126.886 49.4211V73.7096C126.171 73.6259 125.467 73.461 124.784 73.2168L103.702 65.6762ZM157.593 42.6757C157.714 42.8437 157.641 43.0809 157.446 43.151C157.223 43.2307 133.973 51.5463 133.739 51.63C133.61 51.6763 133.463 51.6311 133.382 51.5197L129.772 46.5348L154.088 37.8374L157.593 42.6757ZM124.123 29.6457C125.019 29.327 125.945 29.1211 126.886 29.0303V44.4057C125.931 44.0642 105.674 36.8187 104.814 36.5109L124.123 29.6457Z" fill="#252836"/>
<path d="M129.113 23.1989V9.28518C129.113 8.67019 128.615 8.17188 128 8.17188C127.385 8.17188 126.887 8.67019 126.887 9.28518V23.1988C126.887 23.8138 127.385 24.3121 128 24.3121C128.615 24.3121 129.113 23.8138 129.113 23.1989Z" fill="#FF8700"/>
<path d="M142.742 11.4137C142.424 11.5528 134.941 14.9253 133.703 24.2014C133.615 24.8675 134.132 25.462 134.808 25.462C135.358 25.462 135.836 25.0553 135.91 24.4956C136.357 21.1485 137.782 18.2793 140.146 15.9678C141.922 14.2306 143.598 13.4696 143.636 13.4529C144.198 13.2057 144.454 12.5504 144.208 11.9878C143.962 11.4244 143.306 11.1676 142.742 11.4137Z" fill="#FF8700"/>
<path d="M140.479 26.5803C140.174 27.114 140.359 27.7941 140.892 28.0995C141.425 28.4046 142.106 28.2204 142.412 27.6863C144.997 23.169 148.838 21.4055 151.606 20.7218C152.202 20.5743 152.567 19.9707 152.419 19.3738C152.272 18.777 151.668 18.4124 151.071 18.5602C148.461 19.2057 143.613 21.1054 140.479 26.5803Z" fill="#FF8700"/>
<path d="M111.793 11.9877C111.546 12.5511 111.803 13.2075 112.367 13.4539C112.433 13.4828 119.017 16.4494 120.09 24.4958C120.172 25.1072 120.734 25.5334 121.341 25.4522C121.95 25.3708 122.378 24.8109 122.297 24.2014C121.06 14.9252 113.577 11.5527 113.259 11.4137C112.695 11.1676 112.039 11.4246 111.793 11.9877Z" fill="#FF8700"/>
<path d="M103.58 19.3738C103.432 19.9706 103.796 20.5742 104.393 20.7218C107.16 21.4056 111.001 23.1691 113.587 27.6863C113.893 28.2204 114.573 28.4047 115.106 28.0994C115.64 27.7939 115.825 27.1137 115.519 26.5803C112.386 21.1053 107.538 19.2054 104.928 18.5602C104.33 18.4125 103.727 18.7772 103.58 19.3738Z" fill="#FF8700"/>
<path d="M148.377 11.322C147.762 11.322 147.264 11.8203 147.264 12.4353C147.264 13.0503 147.762 13.5486 148.377 13.5486H149.152V14.3239C149.152 14.9388 149.651 15.4371 150.266 15.4371C150.88 15.4371 151.379 14.9388 151.379 14.3239V13.5486H152.154C152.769 13.5486 153.267 13.0503 153.267 12.4353C153.267 11.8203 152.769 11.322 152.154 11.322H151.379V10.5469C151.379 9.9319 150.88 9.43359 150.266 9.43359C149.651 9.43359 149.152 9.9319 149.152 10.5469V11.322H148.377Z" fill="#FF8700"/>
<path d="M103.549 26.7479H102.773C102.158 26.7479 101.66 27.2463 101.66 27.8612C101.66 28.4762 102.158 28.9745 102.773 28.9745H103.549V29.7498C103.549 30.3648 104.047 30.8631 104.662 30.8631C105.277 30.8631 105.775 30.3648 105.775 29.7498V28.9745H106.551C107.166 28.9745 107.664 28.4762 107.664 27.8612C107.664 27.2463 107.166 26.7479 106.551 26.7479H105.775V25.9727C105.775 25.3577 105.277 24.8594 104.662 24.8594C104.047 24.8594 103.549 25.3577 103.549 25.9727V26.7479Z" fill="#FF8700"/>
<path d="M141.004 3.43129C139.986 2.91071 139.141 2.06356 138.623 1.04586C137.914 -0.348742 135.928 -0.348594 135.218 1.04615C134.7 2.06356 133.855 2.91086 132.838 3.43115C131.444 4.14396 131.453 6.14612 132.831 6.84869C133.844 7.36526 134.688 8.20707 135.207 9.21913C135.914 10.5958 137.928 10.5961 138.634 9.21899C139.153 8.20722 139.998 7.36541 141.011 6.84854C142.388 6.14612 142.398 4.14455 141.004 3.43129ZM136.92 7.72493C136.281 6.67516 135.387 5.78111 134.337 5.14177C135.388 4.50259 136.281 3.60942 136.921 2.56039C137.56 3.60942 138.454 4.50259 139.504 5.14177C138.454 5.78111 137.56 6.67501 136.92 7.72493Z" fill="#252836"/>
<path d="M118.324 11.4325C118.957 12.6645 120.755 12.6665 121.388 11.4325C121.75 10.7271 122.338 10.1403 123.044 9.78019C124.268 9.15585 124.295 7.36655 123.04 6.72365C123.04 6.7235 123.039 6.7235 123.039 6.72336C122.33 6.36072 121.741 5.77037 121.38 5.06082C120.746 3.81318 118.967 3.81289 118.332 5.06097C117.971 5.77022 117.382 6.36072 116.672 6.7238C115.435 7.35749 115.426 9.14665 116.668 9.78019C117.374 10.1402 117.962 10.7271 118.324 11.4325ZM119.856 6.82905C120.248 7.37813 120.731 7.8616 121.281 8.25318C120.732 8.64492 120.248 9.12868 119.856 9.67821C119.464 9.12898 118.98 8.64492 118.431 8.25318C118.981 7.86145 119.464 7.37813 119.856 6.82905Z" fill="#252836"/>
</g>
<path d="M37.8363 111V101.56H34.1243V99.8H43.6283V101.56H39.9163V111H37.8363ZM49.9653 102.36C50.648 102.36 51.256 102.493 51.7893 102.76C52.3333 103.027 52.76 103.437 53.0693 103.992C53.3786 104.536 53.5333 105.24 53.5333 106.104V111H51.5333V106.36C51.5333 105.603 51.352 105.037 50.9893 104.664C50.6373 104.291 50.1413 104.104 49.5013 104.104C49.032 104.104 48.616 104.2 48.2533 104.392C47.8906 104.584 47.608 104.872 47.4053 105.256C47.2133 105.629 47.1173 106.104 47.1173 106.68V111H45.1173V99.128H47.1173V104.76L46.6853 104.056C46.984 103.512 47.416 103.096 47.9813 102.808C48.5573 102.509 49.2186 102.36 49.9653 102.36ZM60.2221 111.112C59.2727 111.112 58.4407 110.925 57.7261 110.552C57.0221 110.168 56.4727 109.645 56.0781 108.984C55.6941 108.323 55.5021 107.571 55.5021 106.728C55.5021 105.875 55.6887 105.123 56.0621 104.472C56.4461 103.811 56.9687 103.293 57.6301 102.92C58.3021 102.547 59.0647 102.36 59.9181 102.36C60.7501 102.36 61.4914 102.541 62.1421 102.904C62.7927 103.267 63.3047 103.779 63.6781 104.44C64.0514 105.101 64.2381 105.88 64.2381 106.776C64.2381 106.861 64.2327 106.957 64.2221 107.064C64.2221 107.171 64.2167 107.272 64.2061 107.368H57.0861V106.04H63.1501L62.3661 106.456C62.3767 105.965 62.2754 105.533 62.0621 105.16C61.8487 104.787 61.5554 104.493 61.1821 104.28C60.8194 104.067 60.3981 103.96 59.9181 103.96C59.4274 103.96 58.9954 104.067 58.6221 104.28C58.2594 104.493 57.9714 104.792 57.7581 105.176C57.5554 105.549 57.4541 105.992 57.4541 106.504V106.824C57.4541 107.336 57.5714 107.789 57.8061 108.184C58.0407 108.579 58.3714 108.883 58.7981 109.096C59.2247 109.309 59.7154 109.416 60.2701 109.416C60.7501 109.416 61.1821 109.341 61.5661 109.192C61.9501 109.043 62.2914 108.808 62.5901 108.488L63.6621 109.72C63.2781 110.168 62.7927 110.515 62.2061 110.76C61.6301 110.995 60.9687 111.112 60.2221 111.112ZM66.2792 111V102.456H68.1832V104.808L67.9592 104.12C68.2152 103.544 68.6152 103.107 69.1592 102.808C69.7139 102.509 70.4019 102.36 71.2232 102.36V104.264C71.1379 104.243 71.0579 104.232 70.9832 104.232C70.9085 104.221 70.8339 104.216 70.7592 104.216C70.0019 104.216 69.3992 104.44 68.9512 104.888C68.5032 105.325 68.2792 105.981 68.2792 106.856V111H66.2792ZM76.9777 111.112C76.0284 111.112 75.1964 110.925 74.4817 110.552C73.7777 110.168 73.2284 109.645 72.8337 108.984C72.4497 108.323 72.2577 107.571 72.2577 106.728C72.2577 105.875 72.4444 105.123 72.8177 104.472C73.2017 103.811 73.7244 103.293 74.3857 102.92C75.0577 102.547 75.8204 102.36 76.6737 102.36C77.5057 102.36 78.247 102.541 78.8977 102.904C79.5484 103.267 80.0604 103.779 80.4337 104.44C80.807 105.101 80.9937 105.88 80.9937 106.776C80.9937 106.861 80.9884 106.957 80.9777 107.064C80.9777 107.171 80.9724 107.272 80.9617 107.368H73.8417V106.04H79.9057L79.1217 106.456C79.1324 105.965 79.031 105.533 78.8177 105.16C78.6044 104.787 78.311 104.493 77.9377 104.28C77.575 104.067 77.1537 103.96 76.6737 103.96C76.183 103.96 75.751 104.067 75.3777 104.28C75.015 104.493 74.727 104.792 74.5137 105.176C74.311 105.549 74.2097 105.992 74.2097 106.504V106.824C74.2097 107.336 74.327 107.789 74.5617 108.184C74.7964 108.579 75.127 108.883 75.5537 109.096C75.9804 109.309 76.471 109.416 77.0257 109.416C77.5057 109.416 77.9377 109.341 78.3217 109.192C78.7057 109.043 79.047 108.808 79.3457 108.488L80.4177 109.72C80.0337 110.168 79.5484 110.515 78.9617 110.76C78.3857 110.995 77.7244 111.112 76.9777 111.112ZM87.7687 111V99.8H89.8487V111H87.7687ZM95.4461 111.112C94.7314 111.112 94.0434 111.021 93.3821 110.84C92.7314 110.648 92.2141 110.419 91.8301 110.152L92.5981 108.632C92.9821 108.877 93.4407 109.08 93.9741 109.24C94.5074 109.4 95.0407 109.48 95.5741 109.48C96.2034 109.48 96.6567 109.395 96.9341 109.224C97.2221 109.053 97.3661 108.824 97.3661 108.536C97.3661 108.301 97.2701 108.125 97.0781 108.008C96.8861 107.88 96.6354 107.784 96.3261 107.72C96.0167 107.656 95.6701 107.597 95.2861 107.544C94.9127 107.491 94.5341 107.421 94.1501 107.336C93.7767 107.24 93.4354 107.107 93.1261 106.936C92.8167 106.755 92.5661 106.515 92.3741 106.216C92.1821 105.917 92.0861 105.523 92.0861 105.032C92.0861 104.488 92.2407 104.019 92.5501 103.624C92.8594 103.219 93.2914 102.909 93.8461 102.696C94.4114 102.472 95.0781 102.36 95.8461 102.36C96.4221 102.36 97.0034 102.424 97.5901 102.552C98.1767 102.68 98.6621 102.861 99.0461 103.096L98.2781 104.616C97.8727 104.371 97.4621 104.205 97.0461 104.12C96.6407 104.024 96.2354 103.976 95.8301 103.976C95.2221 103.976 94.7687 104.067 94.4701 104.248C94.1821 104.429 94.0381 104.659 94.0381 104.936C94.0381 105.192 94.1341 105.384 94.3261 105.512C94.5181 105.64 94.7687 105.741 95.0781 105.816C95.3874 105.891 95.7287 105.955 96.1021 106.008C96.4861 106.051 96.8647 106.12 97.2381 106.216C97.6114 106.312 97.9527 106.445 98.2621 106.616C98.5821 106.776 98.8381 107.005 99.0301 107.304C99.2221 107.603 99.3181 107.992 99.3181 108.472C99.3181 109.005 99.1581 109.469 98.8381 109.864C98.5287 110.259 98.0861 110.568 97.5101 110.792C96.9341 111.005 96.2461 111.112 95.4461 111.112ZM105.894 111V99.8H107.606L114.63 108.424H113.782V99.8H115.846V111H114.134L107.11 102.376H107.958V111H105.894ZM122.615 111.112C121.741 111.112 120.962 110.925 120.279 110.552C119.597 110.168 119.058 109.645 118.663 108.984C118.269 108.323 118.071 107.571 118.071 106.728C118.071 105.875 118.269 105.123 118.663 104.472C119.058 103.811 119.597 103.293 120.279 102.92C120.962 102.547 121.741 102.36 122.615 102.36C123.501 102.36 124.285 102.547 124.967 102.92C125.661 103.293 126.199 103.805 126.583 104.456C126.978 105.107 127.175 105.864 127.175 106.728C127.175 107.571 126.978 108.323 126.583 108.984C126.199 109.645 125.661 110.168 124.967 110.552C124.285 110.925 123.501 111.112 122.615 111.112ZM122.615 109.4C123.106 109.4 123.543 109.293 123.927 109.08C124.311 108.867 124.61 108.557 124.823 108.152C125.047 107.747 125.159 107.272 125.159 106.728C125.159 106.173 125.047 105.699 124.823 105.304C124.61 104.899 124.311 104.589 123.927 104.376C123.543 104.163 123.111 104.056 122.631 104.056C122.141 104.056 121.703 104.163 121.319 104.376C120.946 104.589 120.647 104.899 120.423 105.304C120.199 105.699 120.087 106.173 120.087 106.728C120.087 107.272 120.199 107.747 120.423 108.152C120.647 108.557 120.946 108.867 121.319 109.08C121.703 109.293 122.135 109.4 122.615 109.4ZM133.942 111V99.8H135.654L140.55 107.976H139.654L144.47 99.8H146.182L146.198 111H144.23L144.214 102.888H144.63L140.534 109.72H139.606L135.446 102.888H135.926V111H133.942ZM152.991 111.112C152.116 111.112 151.338 110.925 150.655 110.552C149.972 110.168 149.434 109.645 149.039 108.984C148.644 108.323 148.447 107.571 148.447 106.728C148.447 105.875 148.644 105.123 149.039 104.472C149.434 103.811 149.972 103.293 150.655 102.92C151.338 102.547 152.116 102.36 152.991 102.36C153.876 102.36 154.66 102.547 155.343 102.92C156.036 103.293 156.575 103.805 156.959 104.456C157.354 105.107 157.551 105.864 157.551 106.728C157.551 107.571 157.354 108.323 156.959 108.984C156.575 109.645 156.036 110.168 155.343 110.552C154.66 110.925 153.876 111.112 152.991 111.112ZM152.991 109.4C153.482 109.4 153.919 109.293 154.303 109.08C154.687 108.867 154.986 108.557 155.199 108.152C155.423 107.747 155.535 107.272 155.535 106.728C155.535 106.173 155.423 105.699 155.199 105.304C154.986 104.899 154.687 104.589 154.303 104.376C153.919 104.163 153.487 104.056 153.007 104.056C152.516 104.056 152.079 104.163 151.695 104.376C151.322 104.589 151.023 104.899 150.799 105.304C150.575 105.699 150.463 106.173 150.463 106.728C150.463 107.272 150.575 107.747 150.799 108.152C151.023 108.557 151.322 108.867 151.695 109.08C152.079 109.293 152.511 109.4 152.991 109.4ZM161.621 111L157.957 102.456H160.037L163.189 109.992H162.165L165.429 102.456H167.349L163.685 111H161.621ZM168.719 111V102.456H170.719V111H168.719ZM169.727 101.048C169.354 101.048 169.045 100.931 168.799 100.696C168.565 100.461 168.447 100.179 168.447 99.848C168.447 99.5067 168.565 99.224 168.799 99C169.045 98.7653 169.354 98.648 169.727 98.648C170.101 98.648 170.405 98.76 170.639 98.984C170.885 99.1973 171.007 99.4693 171.007 99.8C171.007 100.152 170.89 100.451 170.655 100.696C170.421 100.931 170.111 101.048 169.727 101.048ZM177.48 111.112C176.531 111.112 175.699 110.925 174.984 110.552C174.28 110.168 173.731 109.645 173.336 108.984C172.952 108.323 172.76 107.571 172.76 106.728C172.76 105.875 172.947 105.123 173.32 104.472C173.704 103.811 174.227 103.293 174.888 102.92C175.56 102.547 176.323 102.36 177.176 102.36C178.008 102.36 178.75 102.541 179.4 102.904C180.051 103.267 180.563 103.779 180.936 104.44C181.31 105.101 181.496 105.88 181.496 106.776C181.496 106.861 181.491 106.957 181.48 107.064C181.48 107.171 181.475 107.272 181.464 107.368H174.344V106.04H180.408L179.624 106.456C179.635 105.965 179.534 105.533 179.32 105.16C179.107 104.787 178.814 104.493 178.44 104.28C178.078 104.067 177.656 103.96 177.176 103.96C176.686 103.96 176.254 104.067 175.88 104.28C175.518 104.493 175.23 104.792 175.016 105.176C174.814 105.549 174.712 105.992 174.712 106.504V106.824C174.712 107.336 174.83 107.789 175.064 108.184C175.299 108.579 175.63 108.883 176.056 109.096C176.483 109.309 176.974 109.416 177.528 109.416C178.008 109.416 178.44 109.341 178.824 109.192C179.208 109.043 179.55 108.808 179.848 108.488L180.92 109.72C180.536 110.168 180.051 110.515 179.464 110.76C178.888 110.995 178.227 111.112 177.48 111.112ZM191.023 111V106.568L191.487 107.848L186.623 99.8H188.847L192.751 106.28H191.503L195.439 99.8H197.487L192.623 107.848L193.103 106.568V111H191.023ZM201.84 111.112C200.891 111.112 200.059 110.925 199.344 110.552C198.64 110.168 198.091 109.645 197.696 108.984C197.312 108.323 197.12 107.571 197.12 106.728C197.12 105.875 197.307 105.123 197.68 104.472C198.064 103.811 198.587 103.293 199.248 102.92C199.92 102.547 200.683 102.36 201.536 102.36C202.368 102.36 203.11 102.541 203.76 102.904C204.411 103.267 204.923 103.779 205.296 104.44C205.67 105.101 205.856 105.88 205.856 106.776C205.856 106.861 205.851 106.957 205.84 107.064C205.84 107.171 205.835 107.272 205.824 107.368H198.704V106.04H204.768L203.984 106.456C203.995 105.965 203.894 105.533 203.68 105.16C203.467 104.787 203.174 104.493 202.8 104.28C202.438 104.067 202.016 103.96 201.536 103.96C201.046 103.96 200.614 104.067 200.24 104.28C199.878 104.493 199.59 104.792 199.376 105.176C199.174 105.549 199.072 105.992 199.072 106.504V106.824C199.072 107.336 199.19 107.789 199.424 108.184C199.659 108.579 199.99 108.883 200.416 109.096C200.843 109.309 201.334 109.416 201.888 109.416C202.368 109.416 202.8 109.341 203.184 109.192C203.568 109.043 203.91 108.808 204.208 108.488L205.28 109.72C204.896 110.168 204.411 110.515 203.824 110.76C203.248 110.995 202.587 111.112 201.84 111.112ZM211.113 111.112C210.175 111.112 209.449 110.872 208.937 110.392C208.425 109.901 208.169 109.181 208.169 108.232V100.568H210.169V108.184C210.169 108.589 210.271 108.904 210.473 109.128C210.687 109.352 210.98 109.464 211.353 109.464C211.801 109.464 212.175 109.347 212.473 109.112L213.033 110.536C212.799 110.728 212.511 110.872 212.169 110.968C211.828 111.064 211.476 111.112 211.113 111.112ZM206.761 104.12V102.52H212.457V104.12H206.761ZM214.927 107.288L214.543 99.8H216.911L216.511 107.288H214.927ZM215.727 111.112C215.353 111.112 215.044 110.989 214.799 110.744C214.553 110.499 214.431 110.205 214.431 109.864C214.431 109.523 214.553 109.235 214.799 109C215.044 108.755 215.353 108.632 215.727 108.632C216.1 108.632 216.404 108.755 216.639 109C216.873 109.235 216.991 109.523 216.991 109.864C216.991 110.205 216.873 110.499 216.639 110.744C216.404 110.989 216.1 111.112 215.727 111.112Z" fill="#EBEBEF"/>
<path d="M37.3252 135.572H41.6572V136.604H37.3252V135.572ZM37.4452 140H36.2452V131.6H42.1732V132.644H37.4452V140ZM43.8143 140V133.64H44.9663V140H43.8143ZM44.3903 132.416C44.1663 132.416 43.9783 132.344 43.8263 132.2C43.6823 132.056 43.6103 131.88 43.6103 131.672C43.6103 131.456 43.6823 131.276 43.8263 131.132C43.9783 130.988 44.1663 130.916 44.3903 130.916C44.6143 130.916 44.7983 130.988 44.9423 131.132C45.0943 131.268 45.1703 131.44 45.1703 131.648C45.1703 131.864 45.0983 132.048 44.9543 132.2C44.8103 132.344 44.6223 132.416 44.3903 132.416ZM50.6819 133.58C51.2019 133.58 51.6579 133.68 52.0499 133.88C52.4499 134.08 52.7619 134.384 52.9859 134.792C53.2099 135.2 53.3219 135.716 53.3219 136.34V140H52.1699V136.472C52.1699 135.856 52.0179 135.392 51.7139 135.08C51.4179 134.768 50.9979 134.612 50.4539 134.612C50.0459 134.612 49.6899 134.692 49.3859 134.852C49.0819 135.012 48.8459 135.248 48.6779 135.56C48.5179 135.872 48.4379 136.26 48.4379 136.724V140H47.2859V133.64H48.3899V135.356L48.2099 134.9C48.4179 134.484 48.7379 134.16 49.1699 133.928C49.6019 133.696 50.1059 133.58 50.6819 133.58ZM58.2019 140.072C57.5859 140.072 57.0339 139.936 56.5459 139.664C56.0659 139.392 55.6859 139.012 55.4059 138.524C55.1259 138.036 54.9859 137.468 54.9859 136.82C54.9859 136.172 55.1259 135.608 55.4059 135.128C55.6859 134.64 56.0659 134.26 56.5459 133.988C57.0339 133.716 57.5859 133.58 58.2019 133.58C58.7379 133.58 59.2219 133.7 59.6539 133.94C60.0859 134.18 60.4299 134.54 60.6859 135.02C60.9499 135.5 61.0819 136.1 61.0819 136.82C61.0819 137.54 60.9539 138.14 60.6979 138.62C60.4499 139.1 60.1099 139.464 59.6779 139.712C59.2459 139.952 58.7539 140.072 58.2019 140.072ZM58.2979 139.064C58.6979 139.064 59.0579 138.972 59.3779 138.788C59.7059 138.604 59.9619 138.344 60.1459 138.008C60.3379 137.664 60.4339 137.268 60.4339 136.82C60.4339 136.364 60.3379 135.972 60.1459 135.644C59.9619 135.308 59.7059 135.048 59.3779 134.864C59.0579 134.68 58.6979 134.588 58.2979 134.588C57.8899 134.588 57.5259 134.68 57.2059 134.864C56.8859 135.048 56.6299 135.308 56.4379 135.644C56.2459 135.972 56.1499 136.364 56.1499 136.82C56.1499 137.268 56.2459 137.664 56.4379 138.008C56.6299 138.344 56.8859 138.604 57.2059 138.788C57.5259 138.972 57.8899 139.064 58.2979 139.064ZM60.4699 140V138.284L60.5419 136.808L60.4219 135.332V131.096H61.5739V140H60.4699ZM67.4922 142.4C67.1882 142.4 66.8922 142.348 66.6042 142.244C66.3162 142.148 66.0682 142.004 65.8602 141.812L66.3522 140.948C66.5122 141.1 66.6882 141.216 66.8802 141.296C67.0722 141.376 67.2762 141.416 67.4922 141.416C67.7722 141.416 68.0042 141.344 68.1882 141.2C68.3722 141.056 68.5442 140.8 68.7042 140.432L69.1002 139.556L69.2202 139.412L71.7162 133.64H72.8442L69.7602 140.636C69.5762 141.084 69.3682 141.436 69.1362 141.692C68.9122 141.948 68.6642 142.128 68.3922 142.232C68.1202 142.344 67.8202 142.4 67.4922 142.4ZM69.0042 140.204L66.1002 133.64H67.3002L69.7722 139.304L69.0042 140.204ZM76.5876 140.072C75.9476 140.072 75.3796 139.932 74.8836 139.652C74.3876 139.372 73.9956 138.988 73.7076 138.5C73.4196 138.004 73.2756 137.444 73.2756 136.82C73.2756 136.188 73.4196 135.628 73.7076 135.14C73.9956 134.652 74.3876 134.272 74.8836 134C75.3796 133.72 75.9476 133.58 76.5876 133.58C77.2196 133.58 77.7836 133.72 78.2796 134C78.7836 134.272 79.1756 134.652 79.4556 135.14C79.7436 135.62 79.8876 136.18 79.8876 136.82C79.8876 137.452 79.7436 138.012 79.4556 138.5C79.1756 138.988 78.7836 139.372 78.2796 139.652C77.7836 139.932 77.2196 140.072 76.5876 140.072ZM76.5876 139.064C76.9956 139.064 77.3596 138.972 77.6796 138.788C78.0076 138.604 78.2636 138.344 78.4476 138.008C78.6316 137.664 78.7236 137.268 78.7236 136.82C78.7236 136.364 78.6316 135.972 78.4476 135.644C78.2636 135.308 78.0076 135.048 77.6796 134.864C77.3596 134.68 76.9956 134.588 76.5876 134.588C76.1796 134.588 75.8156 134.68 75.4956 134.864C75.1756 135.048 74.9196 135.308 74.7276 135.644C74.5356 135.972 74.4396 136.364 74.4396 136.82C74.4396 137.268 74.5356 137.664 74.7276 138.008C74.9196 138.344 75.1756 138.604 75.4956 138.788C75.8156 138.972 76.1796 139.064 76.5876 139.064ZM84.2767 140.072C83.7327 140.072 83.2527 139.972 82.8367 139.772C82.4287 139.572 82.1087 139.268 81.8767 138.86C81.6527 138.444 81.5407 137.924 81.5407 137.3V133.64H82.6927V137.168C82.6927 137.792 82.8407 138.26 83.1367 138.572C83.4407 138.884 83.8647 139.04 84.4087 139.04C84.8087 139.04 85.1567 138.96 85.4527 138.8C85.7487 138.632 85.9767 138.392 86.1367 138.08C86.2967 137.76 86.3767 137.376 86.3767 136.928V133.64H87.5287V140H86.4367V138.284L86.6167 138.74C86.4087 139.164 86.0967 139.492 85.6807 139.724C85.2647 139.956 84.7967 140.072 84.2767 140.072ZM89.8418 140V133.64H90.9458V135.368L90.8378 134.936C91.0138 134.496 91.3098 134.16 91.7258 133.928C92.1418 133.696 92.6538 133.58 93.2618 133.58V134.696C93.2138 134.688 93.1658 134.684 93.1178 134.684C93.0778 134.684 93.0378 134.684 92.9978 134.684C92.3818 134.684 91.8938 134.868 91.5338 135.236C91.1738 135.604 90.9938 136.136 90.9938 136.832V140H89.8418ZM106.182 133.58C106.694 133.58 107.146 133.68 107.538 133.88C107.93 134.08 108.234 134.384 108.45 134.792C108.674 135.2 108.786 135.716 108.786 136.34V140H107.634V136.472C107.634 135.856 107.49 135.392 107.202 135.08C106.914 134.768 106.51 134.612 105.99 134.612C105.606 134.612 105.27 134.692 104.982 134.852C104.694 135.012 104.47 135.248 104.31 135.56C104.158 135.872 104.082 136.26 104.082 136.724V140H102.93V136.472C102.93 135.856 102.786 135.392 102.498 135.08C102.218 134.768 101.814 134.612 101.286 134.612C100.91 134.612 100.578 134.692 100.29 134.852C100.002 135.012 99.7784 135.248 99.6184 135.56C99.4584 135.872 99.3784 136.26 99.3784 136.724V140H98.2264V133.64H99.3304V135.332L99.1504 134.9C99.3504 134.484 99.6584 134.16 100.074 133.928C100.49 133.696 100.974 133.58 101.526 133.58C102.134 133.58 102.658 133.732 103.098 134.036C103.538 134.332 103.826 134.784 103.962 135.392L103.494 135.2C103.686 134.712 104.022 134.32 104.502 134.024C104.982 133.728 105.542 133.58 106.182 133.58ZM113.75 140.072C113.11 140.072 112.542 139.932 112.046 139.652C111.55 139.372 111.158 138.988 110.87 138.5C110.582 138.004 110.438 137.444 110.438 136.82C110.438 136.188 110.582 135.628 110.87 135.14C111.158 134.652 111.55 134.272 112.046 134C112.542 133.72 113.11 133.58 113.75 133.58C114.382 133.58 114.946 133.72 115.442 134C115.946 134.272 116.338 134.652 116.618 135.14C116.906 135.62 117.05 136.18 117.05 136.82C117.05 137.452 116.906 138.012 116.618 138.5C116.338 138.988 115.946 139.372 115.442 139.652C114.946 139.932 114.382 140.072 113.75 140.072ZM113.75 139.064C114.158 139.064 114.522 138.972 114.842 138.788C115.17 138.604 115.426 138.344 115.61 138.008C115.794 137.664 115.886 137.268 115.886 136.82C115.886 136.364 115.794 135.972 115.61 135.644C115.426 135.308 115.17 135.048 114.842 134.864C114.522 134.68 114.158 134.588 113.75 134.588C113.342 134.588 112.978 134.68 112.658 134.864C112.338 135.048 112.082 135.308 111.89 135.644C111.698 135.972 111.602 136.364 111.602 136.82C111.602 137.268 111.698 137.664 111.89 138.008C112.082 138.344 112.338 138.604 112.658 138.788C112.978 138.972 113.342 139.064 113.75 139.064ZM120.255 140L117.471 133.64H118.671L121.143 139.4H120.567L123.087 133.64H124.215L121.431 140H120.255ZM125.411 140V133.64H126.563V140H125.411ZM125.987 132.416C125.763 132.416 125.575 132.344 125.423 132.2C125.279 132.056 125.207 131.88 125.207 131.672C125.207 131.456 125.279 131.276 125.423 131.132C125.575 130.988 125.763 130.916 125.987 130.916C126.211 130.916 126.395 130.988 126.539 131.132C126.691 131.268 126.767 131.44 126.767 131.648C126.767 131.864 126.695 132.048 126.551 132.2C126.407 132.344 126.219 132.416 125.987 132.416ZM131.714 140.072C131.034 140.072 130.434 139.932 129.914 139.652C129.402 139.372 129.002 138.988 128.714 138.5C128.434 138.012 128.294 137.452 128.294 136.82C128.294 136.188 128.43 135.628 128.702 135.14C128.982 134.652 129.362 134.272 129.842 134C130.33 133.72 130.878 133.58 131.486 133.58C132.102 133.58 132.646 133.716 133.118 133.988C133.59 134.26 133.958 134.644 134.222 135.14C134.494 135.628 134.63 136.2 134.63 136.856C134.63 136.904 134.626 136.96 134.618 137.024C134.618 137.088 134.614 137.148 134.606 137.204H129.194V136.376H134.006L133.538 136.664C133.546 136.256 133.462 135.892 133.286 135.572C133.11 135.252 132.866 135.004 132.554 134.828C132.25 134.644 131.894 134.552 131.486 134.552C131.086 134.552 130.73 134.644 130.418 134.828C130.106 135.004 129.862 135.256 129.686 135.584C129.51 135.904 129.422 136.272 129.422 136.688V136.88C129.422 137.304 129.518 137.684 129.71 138.02C129.91 138.348 130.186 138.604 130.538 138.788C130.89 138.972 131.294 139.064 131.75 139.064C132.126 139.064 132.466 139 132.77 138.872C133.082 138.744 133.354 138.552 133.586 138.296L134.222 139.04C133.934 139.376 133.574 139.632 133.142 139.808C132.718 139.984 132.242 140.072 131.714 140.072ZM143.064 140.072C142.52 140.072 142.028 139.952 141.588 139.712C141.156 139.464 140.812 139.1 140.556 138.62C140.308 138.14 140.184 137.54 140.184 136.82C140.184 136.1 140.312 135.5 140.568 135.02C140.832 134.54 141.18 134.18 141.612 133.94C142.052 133.7 142.536 133.58 143.064 133.58C143.688 133.58 144.24 133.716 144.72 133.988C145.2 134.26 145.58 134.64 145.86 135.128C146.14 135.608 146.28 136.172 146.28 136.82C146.28 137.468 146.14 138.036 145.86 138.524C145.58 139.012 145.2 139.392 144.72 139.664C144.24 139.936 143.688 140.072 143.064 140.072ZM139.692 140V131.096H140.844V135.332L140.724 136.808L140.796 138.284V140H139.692ZM142.968 139.064C143.376 139.064 143.74 138.972 144.06 138.788C144.388 138.604 144.644 138.344 144.828 138.008C145.02 137.664 145.116 137.268 145.116 136.82C145.116 136.364 145.02 135.972 144.828 135.644C144.644 135.308 144.388 135.048 144.06 134.864C143.74 134.68 143.376 134.588 142.968 134.588C142.568 134.588 142.204 134.68 141.876 134.864C141.556 135.048 141.3 135.308 141.108 135.644C140.924 135.972 140.832 136.364 140.832 136.82C140.832 137.268 140.924 137.664 141.108 138.008C141.3 138.344 141.556 138.604 141.876 138.788C142.204 138.972 142.568 139.064 142.968 139.064ZM148.092 142.4C147.788 142.4 147.492 142.348 147.204 142.244C146.916 142.148 146.668 142.004 146.46 141.812L146.952 140.948C147.112 141.1 147.288 141.216 147.48 141.296C147.672 141.376 147.876 141.416 148.092 141.416C148.372 141.416 148.604 141.344 148.788 141.2C148.972 141.056 149.144 140.8 149.304 140.432L149.7 139.556L149.82 139.412L152.316 133.64H153.444L150.36 140.636C150.176 141.084 149.968 141.436 149.736 141.692C149.512 141.948 149.264 142.128 148.992 142.232C148.72 142.344 148.42 142.4 148.092 142.4ZM149.604 140.204L146.7 133.64H147.9L150.372 139.304L149.604 140.204ZM159.818 140V132.644H156.938V131.6H163.886V132.644H161.006V140H159.818ZM165.023 142.4C164.719 142.4 164.423 142.348 164.135 142.244C163.847 142.148 163.599 142.004 163.391 141.812L163.883 140.948C164.043 141.1 164.219 141.216 164.411 141.296C164.603 141.376 164.807 141.416 165.023 141.416C165.303 141.416 165.535 141.344 165.719 141.2C165.903 141.056 166.075 140.8 166.235 140.432L166.631 139.556L166.751 139.412L169.247 133.64H170.375L167.291 140.636C167.107 141.084 166.899 141.436 166.667 141.692C166.443 141.948 166.195 142.128 165.923 142.232C165.651 142.344 165.351 142.4 165.023 142.4ZM166.535 140.204L163.631 133.64H164.831L167.303 139.304L166.535 140.204ZM174.942 140.072C174.414 140.072 173.93 139.952 173.49 139.712C173.058 139.464 172.71 139.1 172.446 138.62C172.19 138.14 172.062 137.54 172.062 136.82C172.062 136.1 172.186 135.5 172.434 135.02C172.69 134.54 173.034 134.18 173.466 133.94C173.906 133.7 174.398 133.58 174.942 133.58C175.566 133.58 176.118 133.716 176.598 133.988C177.078 134.26 177.458 134.64 177.738 135.128C178.018 135.608 178.158 136.172 178.158 136.82C178.158 137.468 178.018 138.036 177.738 138.524C177.458 139.012 177.078 139.392 176.598 139.664C176.118 139.936 175.566 140.072 174.942 140.072ZM171.57 142.328V133.64H172.674V135.356L172.602 136.832L172.722 138.308V142.328H171.57ZM174.846 139.064C175.254 139.064 175.618 138.972 175.938 138.788C176.266 138.604 176.522 138.344 176.706 138.008C176.898 137.664 176.994 137.268 176.994 136.82C176.994 136.364 176.898 135.972 176.706 135.644C176.522 135.308 176.266 135.048 175.938 134.864C175.618 134.68 175.254 134.588 174.846 134.588C174.446 134.588 174.082 134.68 173.754 134.864C173.434 135.048 173.178 135.308 172.986 135.644C172.802 135.972 172.71 136.364 172.71 136.82C172.71 137.268 172.802 137.664 172.986 138.008C173.178 138.344 173.434 138.604 173.754 138.788C174.082 138.972 174.446 139.064 174.846 139.064ZM182.701 140.072C182.021 140.072 181.421 139.932 180.901 139.652C180.389 139.372 179.989 138.988 179.701 138.5C179.421 138.012 179.281 137.452 179.281 136.82C179.281 136.188 179.417 135.628 179.689 135.14C179.969 134.652 180.349 134.272 180.829 134C181.317 133.72 181.865 133.58 182.473 133.58C183.089 133.58 183.633 133.716 184.105 133.988C184.577 134.26 184.945 134.644 185.209 135.14C185.481 135.628 185.617 136.2 185.617 136.856C185.617 136.904 185.613 136.96 185.605 137.024C185.605 137.088 185.601 137.148 185.593 137.204H180.181V136.376H184.993L184.525 136.664C184.533 136.256 184.449 135.892 184.273 135.572C184.097 135.252 183.853 135.004 183.541 134.828C183.237 134.644 182.881 134.552 182.473 134.552C182.073 134.552 181.717 134.644 181.405 134.828C181.093 135.004 180.849 135.256 180.673 135.584C180.497 135.904 180.409 136.272 180.409 136.688V136.88C180.409 137.304 180.505 137.684 180.697 138.02C180.897 138.348 181.173 138.604 181.525 138.788C181.877 138.972 182.281 139.064 182.737 139.064C183.113 139.064 183.453 139 183.757 138.872C184.069 138.744 184.341 138.552 184.573 138.296L185.209 139.04C184.921 139.376 184.561 139.632 184.129 139.808C183.705 139.984 183.229 140.072 182.701 140.072ZM192.864 140.072C192.224 140.072 191.728 139.9 191.376 139.556C191.024 139.212 190.848 138.72 190.848 138.08V132.248H192V138.032C192 138.376 192.084 138.64 192.252 138.824C192.428 139.008 192.676 139.1 192.996 139.1C193.356 139.1 193.656 139 193.896 138.8L194.256 139.628C194.08 139.78 193.868 139.892 193.62 139.964C193.38 140.036 193.128 140.072 192.864 140.072ZM189.768 134.588V133.64H193.824V134.588H189.768ZM195.769 140V133.64H196.921V140H195.769ZM196.345 132.416C196.121 132.416 195.933 132.344 195.781 132.2C195.637 132.056 195.565 131.88 195.565 131.672C195.565 131.456 195.637 131.276 195.781 131.132C195.933 130.988 196.121 130.916 196.345 130.916C196.569 130.916 196.753 130.988 196.897 131.132C197.049 131.268 197.125 131.44 197.125 131.648C197.125 131.864 197.053 132.048 196.909 132.2C196.765 132.344 196.577 132.416 196.345 132.416ZM201.424 140.072C200.784 140.072 200.288 139.9 199.936 139.556C199.584 139.212 199.408 138.72 199.408 138.08V132.248H200.56V138.032C200.56 138.376 200.644 138.64 200.812 138.824C200.988 139.008 201.236 139.1 201.556 139.1C201.916 139.1 202.216 139 202.456 138.8L202.816 139.628C202.64 139.78 202.428 139.892 202.18 139.964C201.94 140.036 201.688 140.072 201.424 140.072ZM198.328 134.588V133.64H202.384V134.588H198.328ZM204.329 140V131.096H205.481V140H204.329ZM210.632 140.072C209.952 140.072 209.352 139.932 208.832 139.652C208.32 139.372 207.92 138.988 207.632 138.5C207.352 138.012 207.212 137.452 207.212 136.82C207.212 136.188 207.348 135.628 207.62 135.14C207.9 134.652 208.28 134.272 208.76 134C209.248 133.72 209.796 133.58 210.404 133.58C211.02 133.58 211.564 133.716 212.036 133.988C212.508 134.26 212.876 134.644 213.14 135.14C213.412 135.628 213.548 136.2 213.548 136.856C213.548 136.904 213.544 136.96 213.536 137.024C213.536 137.088 213.532 137.148 213.524 137.204H208.112V136.376H212.924L212.456 136.664C212.464 136.256 212.38 135.892 212.204 135.572C212.028 135.252 211.784 135.004 211.472 134.828C211.168 134.644 210.812 134.552 210.404 134.552C210.004 134.552 209.648 134.644 209.336 134.828C209.024 135.004 208.78 135.256 208.604 135.584C208.428 135.904 208.34 136.272 208.34 136.688V136.88C208.34 137.304 208.436 137.684 208.628 138.02C208.828 138.348 209.104 138.604 209.456 138.788C209.808 138.972 210.212 139.064 210.668 139.064C211.044 139.064 211.384 139 211.688 138.872C212 138.744 212.272 138.552 212.504 138.296L213.14 139.04C212.852 139.376 212.492 139.632 212.06 139.808C211.636 139.984 211.16 140.072 210.632 140.072ZM214.812 141.776L215.412 139.352L215.568 140.048C215.336 140.048 215.14 139.976 214.98 139.832C214.828 139.688 214.752 139.492 214.752 139.244C214.752 139.004 214.828 138.808 214.98 138.656C215.14 138.504 215.332 138.428 215.556 138.428C215.788 138.428 215.976 138.508 216.12 138.668C216.264 138.82 216.336 139.012 216.336 139.244C216.336 139.324 216.328 139.404 216.312 139.484C216.304 139.556 216.284 139.644 216.252 139.748C216.228 139.844 216.188 139.964 216.132 140.108L215.568 141.776H214.812ZM65.4327 159.072C64.7847 159.072 64.2047 158.932 63.6927 158.652C63.1887 158.372 62.7927 157.988 62.5047 157.5C62.2167 157.012 62.0727 156.452 62.0727 155.82C62.0727 155.188 62.2167 154.628 62.5047 154.14C62.7927 153.652 63.1887 153.272 63.6927 153C64.2047 152.72 64.7847 152.58 65.4327 152.58C66.0087 152.58 66.5207 152.696 66.9687 152.928C67.4247 153.152 67.7767 153.488 68.0247 153.936L67.1487 154.5C66.9407 154.188 66.6847 153.96 66.3807 153.816C66.0847 153.664 65.7647 153.588 65.4207 153.588C65.0047 153.588 64.6327 153.68 64.3047 153.864C63.9767 154.048 63.7167 154.308 63.5247 154.644C63.3327 154.972 63.2367 155.364 63.2367 155.82C63.2367 156.276 63.3327 156.672 63.5247 157.008C63.7167 157.344 63.9767 157.604 64.3047 157.788C64.6327 157.972 65.0047 158.064 65.4207 158.064C65.7647 158.064 66.0847 157.992 66.3807 157.848C66.6847 157.696 66.9407 157.464 67.1487 157.152L68.0247 157.704C67.7767 158.144 67.4247 158.484 66.9687 158.724C66.5207 158.956 66.0087 159.072 65.4327 159.072ZM73.5841 159V157.656L73.5241 157.404V155.112C73.5241 154.624 73.3801 154.248 73.0921 153.984C72.8121 153.712 72.3881 153.576 71.8201 153.576C71.4441 153.576 71.0761 153.64 70.7161 153.768C70.3561 153.888 70.0521 154.052 69.8041 154.26L69.3241 153.396C69.6521 153.132 70.0441 152.932 70.5001 152.796C70.9641 152.652 71.4481 152.58 71.9521 152.58C72.8241 152.58 73.4961 152.792 73.9681 153.216C74.4401 153.64 74.6761 154.288 74.6761 155.16V159H73.5841ZM71.4961 159.072C71.0241 159.072 70.6081 158.992 70.2481 158.832C69.8961 158.672 69.6241 158.452 69.4321 158.172C69.2401 157.884 69.1441 157.56 69.1441 157.2C69.1441 156.856 69.2241 156.544 69.3841 156.264C69.5521 155.984 69.8201 155.76 70.1881 155.592C70.5641 155.424 71.0681 155.34 71.7001 155.34H73.7161V156.168H71.7481C71.1721 156.168 70.7841 156.264 70.5841 156.456C70.3841 156.648 70.2841 156.88 70.2841 157.152C70.2841 157.464 70.4081 157.716 70.6561 157.908C70.9041 158.092 71.2481 158.184 71.6881 158.184C72.1201 158.184 72.4961 158.088 72.8161 157.896C73.1441 157.704 73.3801 157.424 73.5241 157.056L73.7521 157.848C73.6001 158.224 73.3321 158.524 72.9481 158.748C72.5641 158.964 72.0801 159.072 71.4961 159.072ZM79.112 159.072C78.472 159.072 77.976 158.9 77.624 158.556C77.272 158.212 77.096 157.72 77.096 157.08V151.248H78.248V157.032C78.248 157.376 78.332 157.64 78.5 157.824C78.676 158.008 78.924 158.1 79.244 158.1C79.604 158.1 79.904 158 80.144 157.8L80.504 158.628C80.328 158.78 80.116 158.892 79.868 158.964C79.628 159.036 79.376 159.072 79.112 159.072ZM76.016 153.588V152.64H80.072V153.588H76.016ZM84.6378 159.072C83.9578 159.072 83.3578 158.932 82.8378 158.652C82.3258 158.372 81.9258 157.988 81.6378 157.5C81.3578 157.012 81.2178 156.452 81.2178 155.82C81.2178 155.188 81.3538 154.628 81.6258 154.14C81.9058 153.652 82.2858 153.272 82.7658 153C83.2538 152.72 83.8018 152.58 84.4098 152.58C85.0258 152.58 85.5698 152.716 86.0418 152.988C86.5138 153.26 86.8818 153.644 87.1458 154.14C87.4178 154.628 87.5538 155.2 87.5538 155.856C87.5538 155.904 87.5498 155.96 87.5418 156.024C87.5418 156.088 87.5378 156.148 87.5298 156.204H82.1178V155.376H86.9298L86.4618 155.664C86.4698 155.256 86.3858 154.892 86.2098 154.572C86.0338 154.252 85.7898 154.004 85.4778 153.828C85.1738 153.644 84.8178 153.552 84.4098 153.552C84.0098 153.552 83.6538 153.644 83.3418 153.828C83.0298 154.004 82.7858 154.256 82.6098 154.584C82.4338 154.904 82.3458 155.272 82.3458 155.688V155.88C82.3458 156.304 82.4418 156.684 82.6338 157.02C82.8338 157.348 83.1098 157.604 83.4618 157.788C83.8138 157.972 84.2178 158.064 84.6738 158.064C85.0498 158.064 85.3898 158 85.6938 157.872C86.0058 157.744 86.2778 157.552 86.5098 157.296L87.1458 158.04C86.8578 158.376 86.4978 158.632 86.0658 158.808C85.6418 158.984 85.1658 159.072 84.6378 159.072ZM92.0575 161.4C91.4735 161.4 90.9055 161.316 90.3535 161.148C89.8095 160.988 89.3655 160.756 89.0215 160.452L89.5735 159.564C89.8695 159.82 90.2335 160.02 90.6655 160.164C91.0975 160.316 91.5495 160.392 92.0215 160.392C92.7735 160.392 93.3255 160.216 93.6775 159.864C94.0295 159.512 94.2055 158.976 94.2055 158.256V156.912L94.3255 155.652L94.2655 154.38V152.64H95.3575V158.136C95.3575 159.256 95.0775 160.08 94.5175 160.608C93.9575 161.136 93.1375 161.4 92.0575 161.4ZM91.9135 158.736C91.2975 158.736 90.7455 158.608 90.2575 158.352C89.7775 158.088 89.3935 157.724 89.1055 157.26C88.8255 156.796 88.6855 156.26 88.6855 155.652C88.6855 155.036 88.8255 154.5 89.1055 154.044C89.3935 153.58 89.7775 153.22 90.2575 152.964C90.7455 152.708 91.2975 152.58 91.9135 152.58C92.4575 152.58 92.9535 152.692 93.4015 152.916C93.8495 153.132 94.2055 153.468 94.4695 153.924C94.7415 154.38 94.8775 154.956 94.8775 155.652C94.8775 156.34 94.7415 156.912 94.4695 157.368C94.2055 157.824 93.8495 158.168 93.4015 158.4C92.9535 158.624 92.4575 158.736 91.9135 158.736ZM92.0455 157.728C92.4695 157.728 92.8455 157.64 93.1735 157.464C93.5015 157.288 93.7575 157.044 93.9415 156.732C94.1335 156.42 94.2295 156.06 94.2295 155.652C94.2295 155.244 94.1335 154.884 93.9415 154.572C93.7575 154.26 93.5015 154.02 93.1735 153.852C92.8455 153.676 92.4695 153.588 92.0455 153.588C91.6215 153.588 91.2415 153.676 90.9055 153.852C90.5775 154.02 90.3175 154.26 90.1255 154.572C89.9415 154.884 89.8495 155.244 89.8495 155.652C89.8495 156.06 89.9415 156.42 90.1255 156.732C90.3175 157.044 90.5775 157.288 90.9055 157.464C91.2415 157.64 91.6215 157.728 92.0455 157.728ZM100.403 159.072C99.7626 159.072 99.1946 158.932 98.6986 158.652C98.2026 158.372 97.8106 157.988 97.5226 157.5C97.2346 157.004 97.0906 156.444 97.0906 155.82C97.0906 155.188 97.2346 154.628 97.5226 154.14C97.8106 153.652 98.2026 153.272 98.6986 153C99.1946 152.72 99.7626 152.58 100.403 152.58C101.035 152.58 101.599 152.72 102.095 153C102.599 153.272 102.991 153.652 103.271 154.14C103.559 154.62 103.703 155.18 103.703 155.82C103.703 156.452 103.559 157.012 103.271 157.5C102.991 157.988 102.599 158.372 102.095 158.652C101.599 158.932 101.035 159.072 100.403 159.072ZM100.403 158.064C100.811 158.064 101.175 157.972 101.495 157.788C101.823 157.604 102.079 157.344 102.263 157.008C102.447 156.664 102.539 156.268 102.539 155.82C102.539 155.364 102.447 154.972 102.263 154.644C102.079 154.308 101.823 154.048 101.495 153.864C101.175 153.68 100.811 153.588 100.403 153.588C99.9946 153.588 99.6306 153.68 99.3106 153.864C98.9906 154.048 98.7346 154.308 98.5426 154.644C98.3506 154.972 98.2546 155.364 98.2546 155.82C98.2546 156.268 98.3506 156.664 98.5426 157.008C98.7346 157.344 98.9906 157.604 99.3106 157.788C99.6306 157.972 99.9946 158.064 100.403 158.064ZM105.416 159V152.64H106.52V154.368L106.412 153.936C106.588 153.496 106.884 153.16 107.3 152.928C107.716 152.696 108.228 152.58 108.836 152.58V153.696C108.788 153.688 108.74 153.684 108.692 153.684C108.652 153.684 108.612 153.684 108.572 153.684C107.956 153.684 107.468 153.868 107.108 154.236C106.748 154.604 106.568 155.136 106.568 155.832V159H105.416ZM110.376 159V152.64H111.528V159H110.376ZM110.952 151.416C110.728 151.416 110.54 151.344 110.388 151.2C110.244 151.056 110.172 150.88 110.172 150.672C110.172 150.456 110.244 150.276 110.388 150.132C110.54 149.988 110.728 149.916 110.952 149.916C111.176 149.916 111.36 149.988 111.504 150.132C111.656 150.268 111.732 150.44 111.732 150.648C111.732 150.864 111.66 151.048 111.516 151.2C111.372 151.344 111.184 151.416 110.952 151.416ZM116.679 159.072C115.999 159.072 115.399 158.932 114.879 158.652C114.367 158.372 113.967 157.988 113.679 157.5C113.399 157.012 113.259 156.452 113.259 155.82C113.259 155.188 113.395 154.628 113.667 154.14C113.947 153.652 114.327 153.272 114.807 153C115.295 152.72 115.843 152.58 116.451 152.58C117.067 152.58 117.611 152.716 118.083 152.988C118.555 153.26 118.923 153.644 119.187 154.14C119.459 154.628 119.595 155.2 119.595 155.856C119.595 155.904 119.591 155.96 119.583 156.024C119.583 156.088 119.579 156.148 119.571 156.204H114.159V155.376H118.971L118.503 155.664C118.511 155.256 118.427 154.892 118.251 154.572C118.075 154.252 117.831 154.004 117.519 153.828C117.215 153.644 116.859 153.552 116.451 153.552C116.051 153.552 115.695 153.644 115.383 153.828C115.071 154.004 114.827 154.256 114.651 154.584C114.475 154.904 114.387 155.272 114.387 155.688V155.88C114.387 156.304 114.483 156.684 114.675 157.02C114.875 157.348 115.151 157.604 115.503 157.788C115.855 157.972 116.259 158.064 116.715 158.064C117.091 158.064 117.431 158 117.735 157.872C118.047 157.744 118.319 157.552 118.551 157.296L119.187 158.04C118.899 158.376 118.539 158.632 118.107 158.808C117.683 158.984 117.207 159.072 116.679 159.072ZM123.139 159.072C122.611 159.072 122.107 159 121.627 158.856C121.155 158.712 120.783 158.536 120.511 158.328L120.991 157.416C121.263 157.6 121.599 157.756 121.999 157.884C122.399 158.012 122.807 158.076 123.223 158.076C123.759 158.076 124.143 158 124.375 157.848C124.615 157.696 124.735 157.484 124.735 157.212C124.735 157.012 124.663 156.856 124.519 156.744C124.375 156.632 124.183 156.548 123.943 156.492C123.711 156.436 123.451 156.388 123.163 156.348C122.875 156.3 122.587 156.244 122.299 156.18C122.011 156.108 121.747 156.012 121.507 155.892C121.267 155.764 121.075 155.592 120.931 155.376C120.787 155.152 120.715 154.856 120.715 154.488C120.715 154.104 120.823 153.768 121.039 153.48C121.255 153.192 121.559 152.972 121.951 152.82C122.351 152.66 122.823 152.58 123.367 152.58C123.783 152.58 124.203 152.632 124.627 152.736C125.059 152.832 125.411 152.972 125.683 153.156L125.191 154.068C124.903 153.876 124.603 153.744 124.291 153.672C123.979 153.6 123.667 153.564 123.355 153.564C122.851 153.564 122.475 153.648 122.227 153.816C121.979 153.976 121.855 154.184 121.855 154.44C121.855 154.656 121.927 154.824 122.071 154.944C122.223 155.056 122.415 155.144 122.647 155.208C122.887 155.272 123.151 155.328 123.439 155.376C123.727 155.416 124.015 155.472 124.303 155.544C124.591 155.608 124.851 155.7 125.083 155.82C125.323 155.94 125.515 156.108 125.659 156.324C125.811 156.54 125.887 156.828 125.887 157.188C125.887 157.572 125.775 157.904 125.551 158.184C125.327 158.464 125.011 158.684 124.603 158.844C124.195 158.996 123.707 159.072 123.139 159.072ZM126.991 160.776L127.591 158.352L127.747 159.048C127.515 159.048 127.319 158.976 127.159 158.832C127.007 158.688 126.931 158.492 126.931 158.244C126.931 158.004 127.007 157.808 127.159 157.656C127.319 157.504 127.511 157.428 127.735 157.428C127.967 157.428 128.155 157.508 128.299 157.668C128.443 157.82 128.515 158.012 128.515 158.244C128.515 158.324 128.507 158.404 128.491 158.484C128.483 158.556 128.463 158.644 128.431 158.748C128.407 158.844 128.367 158.964 128.311 159.108L127.747 160.776H126.991ZM133.904 161.4C133.6 161.4 133.304 161.348 133.016 161.244C132.728 161.148 132.48 161.004 132.272 160.812L132.764 159.948C132.924 160.1 133.1 160.216 133.292 160.296C133.484 160.376 133.688 160.416 133.904 160.416C134.184 160.416 134.416 160.344 134.6 160.2C134.784 160.056 134.956 159.8 135.116 159.432L135.512 158.556L135.632 158.412L138.128 152.64H139.256L136.172 159.636C135.988 160.084 135.78 160.436 135.548 160.692C135.324 160.948 135.076 161.128 134.804 161.232C134.532 161.344 134.232 161.4 133.904 161.4ZM135.416 159.204L132.512 152.64H133.712L136.184 158.304L135.416 159.204ZM143.107 159.072C142.427 159.072 141.827 158.932 141.307 158.652C140.795 158.372 140.395 157.988 140.107 157.5C139.827 157.012 139.687 156.452 139.687 155.82C139.687 155.188 139.823 154.628 140.095 154.14C140.375 153.652 140.755 153.272 141.235 153C141.723 152.72 142.271 152.58 142.879 152.58C143.495 152.58 144.039 152.716 144.511 152.988C144.983 153.26 145.351 153.644 145.615 154.14C145.887 154.628 146.023 155.2 146.023 155.856C146.023 155.904 146.019 155.96 146.011 156.024C146.011 156.088 146.007 156.148 145.999 156.204H140.587V155.376H145.399L144.931 155.664C144.939 155.256 144.855 154.892 144.679 154.572C144.503 154.252 144.259 154.004 143.947 153.828C143.643 153.644 143.287 153.552 142.879 153.552C142.479 153.552 142.123 153.644 141.811 153.828C141.499 154.004 141.255 154.256 141.079 154.584C140.903 154.904 140.815 155.272 140.815 155.688V155.88C140.815 156.304 140.911 156.684 141.103 157.02C141.303 157.348 141.579 157.604 141.931 157.788C142.283 157.972 142.687 158.064 143.143 158.064C143.519 158.064 143.859 158 144.163 157.872C144.475 157.744 144.747 157.552 144.979 157.296L145.615 158.04C145.327 158.376 144.967 158.632 144.535 158.808C144.111 158.984 143.635 159.072 143.107 159.072ZM151.515 159V157.656L151.455 157.404V155.112C151.455 154.624 151.311 154.248 151.023 153.984C150.743 153.712 150.319 153.576 149.751 153.576C149.375 153.576 149.007 153.64 148.647 153.768C148.287 153.888 147.983 154.052 147.735 154.26L147.255 153.396C147.583 153.132 147.975 152.932 148.431 152.796C148.895 152.652 149.379 152.58 149.883 152.58C150.755 152.58 151.427 152.792 151.899 153.216C152.371 153.64 152.607 154.288 152.607 155.16V159H151.515ZM149.427 159.072C148.955 159.072 148.539 158.992 148.179 158.832C147.827 158.672 147.555 158.452 147.363 158.172C147.171 157.884 147.075 157.56 147.075 157.2C147.075 156.856 147.155 156.544 147.315 156.264C147.483 155.984 147.751 155.76 148.119 155.592C148.495 155.424 148.999 155.34 149.631 155.34H151.647V156.168H149.679C149.103 156.168 148.715 156.264 148.515 156.456C148.315 156.648 148.215 156.88 148.215 157.152C148.215 157.464 148.339 157.716 148.587 157.908C148.835 158.092 149.179 158.184 149.619 158.184C150.051 158.184 150.427 158.088 150.747 157.896C151.075 157.704 151.311 157.424 151.455 157.056L151.683 157.848C151.531 158.224 151.263 158.524 150.879 158.748C150.495 158.964 150.011 159.072 149.427 159.072ZM154.859 159V152.64H155.963V154.368L155.855 153.936C156.031 153.496 156.327 153.16 156.743 152.928C157.159 152.696 157.671 152.58 158.279 152.58V153.696C158.231 153.688 158.183 153.684 158.135 153.684C158.095 153.684 158.055 153.684 158.015 153.684C157.399 153.684 156.911 153.868 156.551 154.236C156.191 154.604 156.011 155.136 156.011 155.832V159H154.859ZM161.713 159.072C161.185 159.072 160.681 159 160.201 158.856C159.729 158.712 159.357 158.536 159.085 158.328L159.565 157.416C159.837 157.6 160.173 157.756 160.573 157.884C160.973 158.012 161.381 158.076 161.797 158.076C162.333 158.076 162.717 158 162.949 157.848C163.189 157.696 163.309 157.484 163.309 157.212C163.309 157.012 163.237 156.856 163.093 156.744C162.949 156.632 162.757 156.548 162.517 156.492C162.285 156.436 162.025 156.388 161.737 156.348C161.449 156.3 161.161 156.244 160.873 156.18C160.585 156.108 160.321 156.012 160.081 155.892C159.841 155.764 159.649 155.592 159.505 155.376C159.361 155.152 159.289 154.856 159.289 154.488C159.289 154.104 159.397 153.768 159.613 153.48C159.829 153.192 160.133 152.972 160.525 152.82C160.925 152.66 161.397 152.58 161.941 152.58C162.357 152.58 162.777 152.632 163.201 152.736C163.633 152.832 163.985 152.972 164.257 153.156L163.765 154.068C163.477 153.876 163.177 153.744 162.865 153.672C162.553 153.6 162.241 153.564 161.929 153.564C161.425 153.564 161.049 153.648 160.801 153.816C160.553 153.976 160.429 154.184 160.429 154.44C160.429 154.656 160.501 154.824 160.645 154.944C160.797 155.056 160.989 155.144 161.221 155.208C161.461 155.272 161.725 155.328 162.013 155.376C162.301 155.416 162.589 155.472 162.877 155.544C163.165 155.608 163.425 155.7 163.657 155.82C163.897 155.94 164.089 156.108 164.233 156.324C164.385 156.54 164.461 156.828 164.461 157.188C164.461 157.572 164.349 157.904 164.125 158.184C163.901 158.464 163.585 158.684 163.177 158.844C162.769 158.996 162.281 159.072 161.713 159.072ZM165.565 160.776L166.165 158.352L166.321 159.048C166.089 159.048 165.893 158.976 165.733 158.832C165.581 158.688 165.505 158.492 165.505 158.244C165.505 158.004 165.581 157.808 165.733 157.656C165.893 157.504 166.085 157.428 166.309 157.428C166.541 157.428 166.729 157.508 166.873 157.668C167.017 157.82 167.089 158.012 167.089 158.244C167.089 158.324 167.081 158.404 167.065 158.484C167.057 158.556 167.037 158.644 167.005 158.748C166.981 158.844 166.941 158.964 166.885 159.108L166.321 160.776H165.565ZM175.034 159.072C174.354 159.072 173.754 158.932 173.234 158.652C172.722 158.372 172.322 157.988 172.034 157.5C171.754 157.012 171.614 156.452 171.614 155.82C171.614 155.188 171.75 154.628 172.022 154.14C172.302 153.652 172.682 153.272 173.162 153C173.65 152.72 174.198 152.58 174.806 152.58C175.422 152.58 175.966 152.716 176.438 152.988C176.91 153.26 177.278 153.644 177.542 154.14C177.814 154.628 177.95 155.2 177.95 155.856C177.95 155.904 177.946 155.96 177.938 156.024C177.938 156.088 177.934 156.148 177.926 156.204H172.514V155.376H177.326L176.858 155.664C176.866 155.256 176.782 154.892 176.606 154.572C176.43 154.252 176.186 154.004 175.874 153.828C175.57 153.644 175.214 153.552 174.806 153.552C174.406 153.552 174.05 153.644 173.738 153.828C173.426 154.004 173.182 154.256 173.006 154.584C172.83 154.904 172.742 155.272 172.742 155.688V155.88C172.742 156.304 172.838 156.684 173.03 157.02C173.23 157.348 173.506 157.604 173.858 157.788C174.21 157.972 174.614 158.064 175.07 158.064C175.446 158.064 175.786 158 176.09 157.872C176.402 157.744 176.674 157.552 176.906 157.296L177.542 158.04C177.254 158.376 176.894 158.632 176.462 158.808C176.038 158.984 175.562 159.072 175.034 159.072ZM181.854 159.072C181.214 159.072 180.718 158.9 180.366 158.556C180.014 158.212 179.838 157.72 179.838 157.08V151.248H180.99V157.032C180.99 157.376 181.074 157.64 181.242 157.824C181.418 158.008 181.666 158.1 181.986 158.1C182.346 158.1 182.646 158 182.886 157.8L183.246 158.628C183.07 158.78 182.858 158.892 182.61 158.964C182.37 159.036 182.118 159.072 181.854 159.072ZM178.758 153.588V152.64H182.814V153.588H178.758ZM187.32 159.072C186.672 159.072 186.092 158.932 185.58 158.652C185.076 158.372 184.68 157.988 184.392 157.5C184.104 157.012 183.96 156.452 183.96 155.82C183.96 155.188 184.104 154.628 184.392 154.14C184.68 153.652 185.076 153.272 185.58 153C186.092 152.72 186.672 152.58 187.32 152.58C187.896 152.58 188.408 152.696 188.856 152.928C189.312 153.152 189.664 153.488 189.912 153.936L189.036 154.5C188.828 154.188 188.572 153.96 188.268 153.816C187.972 153.664 187.652 153.588 187.308 153.588C186.892 153.588 186.52 153.68 186.192 153.864C185.864 154.048 185.604 154.308 185.412 154.644C185.22 154.972 185.124 155.364 185.124 155.82C185.124 156.276 185.22 156.672 185.412 157.008C185.604 157.344 185.864 157.604 186.192 157.788C186.52 157.972 186.892 158.064 187.308 158.064C187.652 158.064 187.972 157.992 188.268 157.848C188.572 157.696 188.828 157.464 189.036 157.152L189.912 157.704C189.664 158.144 189.312 158.484 188.856 158.724C188.408 158.956 187.896 159.072 187.32 159.072Z" fill="#92929D"/>
<defs>
<clipPath id="clip0_967_5779">
<rect width="76" height="76" fill="white" transform="translate(88)"/>
</clipPath>
</defs>
</svg>
